<?xml version="1.0" encoding="UTF-8" standalone="no"?>
<svg
   version="1.1"
   width="429.44247"
   height="284.23529"
   id="svg3857"
   sodipodi:docname="geogebra-export-2.svg"
   inkscape:version="1.1.1 (3bf5ae0d25, 2021-09-20)"
   xmlns:inkscape="http://www.inkscape.org/namespaces/inkscape"
   xmlns:sodipodi="http://sodipodi.sourceforge.net/DTD/sodipodi-0.dtd"
   xmlns="http://www.w3.org/2000/svg"
   xmlns:svg="http://www.w3.org/2000/svg">
  <sodipodi:namedview
     id="namedview3859"
     pagecolor="#ffffff"
     bordercolor="#666666"
     borderopacity="1.0"
     inkscape:pageshadow="2"
     inkscape:pageopacity="0.0"
     inkscape:pagecheckerboard="0"
     showgrid="false"
     inkscape:zoom="1.294702"
     inkscape:cx="387.34783"
     inkscape:cy="240.20972"
     inkscape:window-width="1920"
     inkscape:window-height="986"
     inkscape:window-x="-11"
     inkscape:window-y="-11"
     inkscape:window-maximized="1"
     inkscape:current-layer="svg3857" />
  <defs
     id="defs3703">
    <clipPath
       id="pfmPNJCWiVHD">
      <path
         fill="none"
         stroke="none"
         d="M 0,0 H 774 V 604 H 0 Z"
         id="path3700" />
    </clipPath>
    <clipPath
       clipPathUnits="userSpaceOnUse"
       id="clipPath4318">
      <path
         style="fill:none;stroke:#000000;stroke-width:1px;stroke-linecap:butt;stroke-linejoin:miter;stroke-opacity:1"
         d="M 0,0 0.243977,286.04992 439.48338,286.55243 432.00356,-5.136781 Z"
         id="path4320" />
    </clipPath>
    <clipPath
       clipPathUnits="userSpaceOnUse"
       id="clipPath4517">
      <path
         style="fill:none;stroke:#000000;stroke-width:1px;stroke-linecap:butt;stroke-linejoin:miter;stroke-opacity:1"
         d="M 0,0 V 283.46292 L 429.44246,284.23529 428.67008,2.3171355 Z"
         id="path4519" />
    </clipPath>
  </defs>
  <g
     clip-path="url(#clipPath4517)"
     id="g3855">
    <g
       id="g3853">
      <rect
         fill="#ffffff"
         stroke="none"
         x="0"
         y="0"
         width="774"
         height="604"
         fill-opacity="1"
         id="rect3705" />
      <path
         fill="none"
         stroke="#000000"
         paint-order="fill stroke markers"
         d="m 298.80966,142.94016 c 0,75.17968 -60.94517,136.12486 -136.12485,136.12486 -75.179681,0 -136.124853,-60.94518 -136.124853,-136.12486 0,-75.179677 60.945172,-136.124849 136.124853,-136.124849 75.17968,0 136.12485,60.945172 136.12485,136.124849 z"
         stroke-opacity="0.698039"
         stroke-linecap="round"
         stroke-linejoin="round"
         stroke-miterlimit="10"
         stroke-width="2.5"
         id="path3707" />
      <path
         fill="none"
         stroke="#000000"
         paint-order="fill stroke markers"
         d="m 407.70954,142.94016 c 0,35.08385 -28.44108,63.52493 -63.52493,63.52493 -35.08385,0 -63.52493,-28.44108 -63.52493,-63.52493 0,-35.08385 28.44108,-63.524928 63.52493,-63.524928 35.08385,0 63.52493,28.441078 63.52493,63.524928 z"
         stroke-opacity="0.698039"
         stroke-linecap="round"
         stroke-linejoin="round"
         stroke-miterlimit="10"
         stroke-width="2.5"
         id="path3709" />
      <path
         fill="none"
         stroke="#000000"
         paint-order="fill stroke markers"
         d="m 162.68481,142.94016 h 181.4998"
         stroke-opacity="0.698039"
         stroke-linecap="round"
         stroke-linejoin="round"
         stroke-miterlimit="10"
         stroke-width="2.5"
         id="path3711" />
      <g
         transform="scale(19)"
         id="g3723">
        <g
           transform="translate(13.368421,8.4861053)"
           id="g3721">
          <g
             id="g3715">
            <path
               fill="#000000"
               stroke="none"
               paint-order="stroke fill markers"
               d="m 0.449,-0.174 v 0 L 0.421,0 H 0.05 q 0,-0.025 0.006,-0.032 l 0.005,-0.005 0.192,-0.214 q 0.105,-0.118 0.105,-0.221 0,-0.089 -0.054,-0.135 L 0.303,-0.608 H 0.302 Q 0.27,-0.635 0.224,-0.635 q -0.072,0 -0.115,0.062 -0.012,0.018 -0.02,0.04 0.003,-0.001 0.013,-0.001 0.04,0 0.051,0.036 v 0.001 q 0.002,0.007 0.002,0.015 0,0.04 -0.038,0.051 -0.008,0.002 -0.014,0.002 -0.037,0 -0.049,-0.031 -0.004,-0.011 -0.004,-0.025 0,-0.077 0.059,-0.132 0.053,-0.049 0.128,-0.049 0.11,0 0.171,0.074 0.035,0.043 0.04,0.102 0.001,0.009 0.001,0.018 0,0.073 -0.055,0.139 -0.029,0.034 -0.09,0.09 l -0.061,0.054 -0.01,0.009 -0.106,0.103 h 0.18 q 0.088,0 0.095,-0.008 0.01,-0.014 0.022,-0.089 z"
               id="path3713" />
          </g>
          <g
             transform="translate(0.5)"
             id="g3719">
            <path
               fill="#000000"
               stroke="none"
               paint-order="stroke fill markers"
               d="m 0.46,-0.32 q 0,0.146 -0.037,0.226 Q 0.364,0.018 0.249,0.022 0.158,0.022 0.103,-0.05 0.092,-0.063 0.084,-0.079 0.039,-0.162 0.039,-0.32 q 0,-0.147 0.037,-0.227 0.05,-0.112 0.162,-0.119 H 0.25 q 0.089,0 0.145,0.071 v 0.001 q 0.014,0.018 0.025,0.04 0.04,0.085 0.04,0.234 M 0.249,0 v 0 q 0.063,0 0.097,-0.061 0.014,-0.027 0.02,-0.064 0.011,-0.064 0.011,-0.207 0,-0.139 -0.01,-0.195 -0.018,-0.095 -0.092,-0.114 -0.013,-0.003 -0.026,-0.003 -0.07,0 -0.102,0.07 -0.011,0.024 -0.017,0.058 -0.008,0.054 -0.008,0.184 0,0.151 0.011,0.211 0.018,0.096 0.088,0.117 Q 0.235,0 0.249,0 Z"
               id="path3717" />
          </g>
        </g>
      </g>
      <path
         fill="none"
         stroke="#000000"
         paint-order="fill stroke markers"
         d="M 40.154501,202.23855 H 366.96877"
         stroke-opacity="0.698039"
         stroke-linecap="round"
         stroke-linejoin="round"
         stroke-miterlimit="10"
         stroke-width="2.5"
         id="path3725" />
      <path
         fill="none"
         stroke="#000000"
         paint-order="fill stroke markers"
         d="M 285.21512,83.641774 40.154501,202.23855"
         stroke-opacity="0.698039"
         stroke-linecap="round"
         stroke-linejoin="round"
         stroke-miterlimit="10"
         stroke-width="2.5"
         id="path3727" />
      <g
         transform="scale(19)"
         id="g3739">
        <g
           transform="translate(8.4210526,6.3808421)"
           id="g3737">
          <g
             id="g3731">
            <path
               fill="#000000"
               stroke="none"
               paint-order="stroke fill markers"
               d="m 0.29,-0.352 v 0 q 0.1,0.02 0.144,0.098 0.023,0.039 0.023,0.083 0,0.085 -0.07,0.143 -0.061,0.05 -0.143,0.05 -0.099,0 -0.159,-0.059 -0.043,-0.042 -0.043,-0.098 0,-0.047 0.042,-0.056 0.007,-0.002 0.014,-0.002 0.038,0 0.051,0.032 0.004,0.013 0.005,0.024 0,0.04 -0.036,0.052 -0.014,0.005 -0.03,0.003 0.037,0.062 0.128,0.074 0.013,0.002 0.025,0.002 0.064,0 0.094,-0.063 0.019,-0.04 0.019,-0.102 0,-0.133 -0.08,-0.16 Q 0.256,-0.337 0.235,-0.337 H 0.191 q -0.022,0 -0.024,-0.011 0,-0.01 0.015,-0.012 0.015,0 0.039,-0.003 0.051,-0.002 0.08,-0.039 v -0.001 l 0.001,-0.001 0.001,-0.001 h 0.001 l 0.006,-0.01 q 0.028,-0.047 0.028,-0.114 0,-0.093 -0.072,-0.109 -0.012,-0.003 -0.024,-0.003 -0.07,0 -0.114,0.04 -0.011,0.01 -0.019,0.022 0.062,0 0.062,0.05 0,0.036 -0.031,0.048 -0.009,0.003 -0.02,0.003 -0.039,0 -0.049,-0.035 v 0 -0.001 Q 0.069,-0.522 0.069,-0.53 q 0,-0.067 0.066,-0.107 0.048,-0.029 0.111,-0.029 0.091,0 0.147,0.054 l 0.002,0.002 q 0.035,0.036 0.035,0.082 0,0.083 -0.071,0.139 -0.031,0.024 -0.069,0.037 z"
               id="path3729" />
          </g>
          <g
             transform="translate(0.5)"
             id="g3735">
            <path
               fill="#000000"
               stroke="none"
               paint-order="stroke fill markers"
               d="m 0.46,-0.32 q 0,0.146 -0.037,0.226 Q 0.364,0.018 0.249,0.022 0.158,0.022 0.103,-0.05 0.092,-0.063 0.084,-0.079 0.039,-0.162 0.039,-0.32 q 0,-0.147 0.037,-0.227 0.05,-0.112 0.162,-0.119 H 0.25 q 0.089,0 0.145,0.071 v 0.001 q 0.014,0.018 0.025,0.04 0.04,0.085 0.04,0.234 M 0.249,0 v 0 q 0.063,0 0.097,-0.061 0.014,-0.027 0.02,-0.064 0.011,-0.064 0.011,-0.207 0,-0.139 -0.01,-0.195 -0.018,-0.095 -0.092,-0.114 -0.013,-0.003 -0.026,-0.003 -0.07,0 -0.102,0.07 -0.011,0.024 -0.017,0.058 -0.008,0.054 -0.008,0.184 0,0.151 0.011,0.211 0.018,0.096 0.088,0.117 Q 0.235,0 0.249,0 Z"
               id="path3733" />
          </g>
        </g>
      </g>
      <path
         fill="none"
         stroke="#000000"
         paint-order="fill stroke markers"
         d="M 321.40045,83.641774 366.96877,202.23855"
         stroke-opacity="0.698039"
         stroke-linecap="round"
         stroke-linejoin="round"
         stroke-miterlimit="10"
         stroke-width="2.5"
         id="path3741" />
      <g
         transform="scale(19)"
         id="g3753">
        <g
           transform="translate(18.105263,6.8018947)"
           id="g3751">
          <g
             id="g3745">
            <path
               fill="#000000"
               stroke="none"
               paint-order="stroke fill markers"
               d="m 0.294,-0.64 v 0.561 q 0,0.03 0.012,0.038 0.017,0.01 0.081,0.01 H 0.419 V 0 Q 0.384,-0.003 0.257,-0.003 0.13,-0.003 0.095,0 v -0.031 h 0.032 q 0.077,0 0.088,-0.018 L 0.216,-0.05 Q 0.22,-0.058 0.22,-0.079 v -0.518 q -0.052,0.026 -0.131,0.026 v -0.031 q 0.12,0 0.182,-0.064 0.019,0 0.022,0.007 v 0 0.001 q 0.001,0.003 0.001,0.018 z"
               id="path3743" />
          </g>
          <g
             transform="translate(0.5)"
             id="g3749">
            <path
               fill="#000000"
               stroke="none"
               paint-order="stroke fill markers"
               d="m 0.028,-0.165 v -0.031 l 0.307,-0.469 q 0.008,-0.012 0.02,-0.012 0.014,0 0.016,0.011 v 0.015 0.455 h 0.1 v 0.031 h -0.1 v 0.087 q 0,0.031 0.012,0.038 0.014,0.009 0.064,0.009 H 0.468 V 0 Q 0.427,-0.003 0.332,-0.003 0.238,-0.003 0.197,0 v -0.031 h 0.021 q 0.062,0 0.072,-0.017 0.004,-0.007 0.004,-0.03 V -0.165 H 0.028 M 0.3,-0.196 v -0.373 l -0.244,0.373 z"
               id="path3747" />
          </g>
        </g>
      </g>
      <path
         fill="none"
         stroke="#000000"
         paint-order="fill stroke markers"
         d="m 285.21512,83.641774 h 36.18533"
         stroke-opacity="0.698039"
         stroke-linecap="round"
         stroke-linejoin="round"
         stroke-miterlimit="10"
         stroke-width="2.5"
         id="path3755" />
      <path
         fill="none"
         stroke="#000000"
         paint-order="fill stroke markers"
         d="m 293.36467,104.8252 v 76.22992"
         stroke-opacity="0.698039"
         stroke-linecap="round"
         stroke-linejoin="round"
         stroke-miterlimit="10"
         stroke-width="2.5"
         id="path3757" />
      <path
         fill="none"
         stroke="#000000"
         paint-order="fill stroke markers"
         d="M 293.36467,104.8252 162.68481,142.94016"
         stroke-opacity="0.698039"
         stroke-linecap="round"
         stroke-linejoin="round"
         stroke-miterlimit="10"
         stroke-width="2.5"
         id="path3759" />
      <path
         fill="none"
         stroke="#000000"
         paint-order="fill stroke markers"
         d="m 293.36467,104.8252 50.81994,38.11496"
         stroke-opacity="0.698039"
         stroke-linecap="round"
         stroke-linejoin="round"
         stroke-miterlimit="10"
         stroke-width="2.5"
         id="path3761" />
      <path
         fill="#000000"
         stroke="none"
         paint-order="stroke fill markers"
         d="m 166.68481,142.94016 c 0,2.20914 -1.79086,4 -4,4 -2.20914,0 -4,-1.79086 -4,-4 0,-2.20914 1.79086,-4 4,-4 2.20914,0 4,1.79086 4,4 z"
         fill-opacity="1"
         id="path3763" />
      <g
         transform="scale(19)"
         id="g3771">
        <g
           transform="matrix(1.2,0,0,1.2,7.1578947,7.3985474)"
           id="g3769">
          <g
             id="g3767">
            <path
               fill="#000000"
               stroke="none"
               paint-order="stroke fill markers"
               d="M 0.76,-0.695 0.697,-0.44 q -0.005,0.018 -0.01,0.019 L 0.686,-0.42 H 0.679 q -0.015,0 -0.015,-0.01 l 0.003,-0.049 v -0.002 q 0,-0.124 -0.078,-0.171 L 0.588,-0.653 q -0.035,-0.021 -0.082,-0.021 -0.106,0 -0.201,0.079 -0.024,0.019 -0.043,0.042 -0.095,0.111 -0.117,0.282 -0.004,0.031 -0.004,0.054 0,0.14 0.106,0.189 0.041,0.019 0.09,0.019 0.094,0 0.184,-0.073 0.07,-0.059 0.101,-0.158 0.002,-0.01 0.013,-0.01 0.012,0 0.012,0.01 0,0.018 -0.023,0.064 -0.031,0.063 -0.087,0.112 -0.099,0.086 -0.216,0.086 -0.128,0 -0.205,-0.088 -0.066,-0.075 -0.066,-0.186 0,-0.149 0.109,-0.279 0.101,-0.121 0.239,-0.16 0.051,-0.014 0.1,-0.014 0.109,0 0.166,0.089 l 0.07,-0.077 q 0.012,-0.012 0.015,-0.012 0.011,0 0.011,0.01 z"
               id="path3765" />
          </g>
        </g>
      </g>
      <path
         fill="#000000"
         stroke="none"
         paint-order="stroke fill markers"
         d="m 348.18461,142.94016 c 0,2.20914 -1.79086,4 -4,4 -2.20914,0 -4,-1.79086 -4,-4 0,-2.20914 1.79086,-4 4,-4 2.20914,0 4,1.79086 4,4 z"
         fill-opacity="1"
         id="path3773" />
      <g
         transform="scale(19)"
         id="g3781">
        <g
           transform="matrix(1.2,0,0,1.2,18.368421,8.0827579)"
           id="g3779">
          <g
             id="g3777">
            <path
               fill="#000000"
               stroke="none"
               paint-order="stroke fill markers"
               d="m 0.159,-0.078 v 0 l 0.134,-0.537 q 0.004,-0.016 0.004,-0.019 0,-0.012 -0.016,-0.015 H 0.28 v 0 Q 0.278,-0.65 0.275,-0.65 0.251,-0.652 0.232,-0.652 q -0.026,0 -0.028,-0.008 -10e-4,-0.002 -10e-4,-0.004 0,-0.017 0.017,-0.019 v 0 h 0.013 0.336 q 0.13,0 0.194,0.101 0.041,0.064 0.041,0.152 0,0.145 -0.101,0.271 Q 0.607,-0.042 0.477,-0.01 0.438,0 0.399,0 H 0.068 Q 0.043,0 0.041,-0.008 0.04,-0.009 0.04,-0.012 q 0,-0.017 0.016,-0.019 h 0.012 q 0.065,0 0.078,-0.014 0.006,-0.007 0.012,-0.028 0,-0.001 0.001,-0.005 m 0.216,-0.536 -0.137,0.549 q -0.005,0.018 -0.005,0.023 0,0.008 0.009,0.01 v 0 0 h 0.004 q 0.006,0.001 0.022,0.001 h 0.113 q 0.124,0 0.214,-0.093 0.009,-0.01 0.017,-0.02 0.08,-0.104 0.101,-0.272 0.004,-0.031 0.004,-0.051 0,-0.134 -0.105,-0.172 Q 0.578,-0.652 0.536,-0.652 H 0.429 q -0.036,0 -0.044,0.01 v 0 0.001 H 0.384 V -0.64 Q 0.38,-0.634 0.375,-0.614 Z"
               id="path3775" />
          </g>
        </g>
      </g>
      <path
         fill="#000000"
         stroke="none"
         paint-order="stroke fill markers"
         d="m 297.36467,104.8252 c 0,2.20914 -1.79086,4 -4,4 -2.20914,0 -4,-1.79086 -4,-4 0,-2.20913 1.79086,-4 4,-4 2.20914,0 4,1.79087 4,4 z"
         fill-opacity="1"
         id="path3783" />
      <g
         transform="scale(19)"
         id="g3791">
        <g
           transform="matrix(1.2,0,0,1.2,15.842105,5.6090737)"
           id="g3789">
          <g
             id="g3787">
            <path
               fill="#000000"
               stroke="none"
               paint-order="stroke fill markers"
               d="m 0.179,-0.115 0.348,-0.584 q 0.01,-0.016 0.026,-0.017 0.015,0 0.017,0.01 0.001,0.003 0.002,0.014 l 0.061,0.625 q 0.003,0.025 0.012,0.03 h 0.001 v 0 0 0 0.001 q 0.012,0.005 0.052,0.005 0.022,0 0.023,0.011 Q 0.721,0 0.703,0 L 0.591,-0.003 H 0.59 L 0.466,0 H 0.465 q -0.014,0 -0.014,-0.011 0.008,-0.019 0.024,-0.02 0.072,0 0.072,-0.033 0,0.001 -0.016,-0.167 H 0.28 l -0.076,0.128 q -0.014,0.025 -0.014,0.037 0,0.031 0.047,0.035 0.016,0 0.016,0.012 Q 0.253,0 0.234,0 L 0.138,-0.003 H 0.134 L 0.05,0 H 0.048 q -0.013,0 -0.013,-0.011 0,-0.018 0.015,-0.019 v -0.001 h 0.006 q 0.063,-0.004 0.103,-0.054 0.01,-0.013 0.02,-0.03 m 0.12,-0.147 h 0.229 l -0.032,-0.33 z"
               id="path3785" />
          </g>
        </g>
      </g>
      <path
         fill="#000000"
         stroke="none"
         paint-order="stroke fill markers"
         d="m 297.36467,181.05512 c 0,2.20914 -1.79086,4 -4,4 -2.20914,0 -4,-1.79086 -4,-4 0,-2.20914 1.79086,-4 4,-4 2.20914,0 4,1.79086 4,4 z"
         fill-opacity="1"
         id="path3793" />
      <g
         transform="scale(19)"
         id="g3801">
        <g
           transform="matrix(1.2,0,0,1.2,15.789474,9.7669684)"
           id="g3799">
          <g
             id="g3797">
            <path
               fill="#000000"
               stroke="none"
               paint-order="stroke fill markers"
               d="m 0.16,-0.078 0.134,-0.537 q 0.004,-0.016 0.004,-0.019 0,-0.012 -0.016,-0.015 H 0.281 0.28 q -0.003,0 -0.009,-0.001 -0.017,-0.002 -0.038,-0.002 -0.026,0 -0.028,-0.011 0,-0.018 0.015,-0.02 H 0.221 0.222 0.234 0.57 q 0.115,0 0.164,0.068 0.022,0.032 0.022,0.07 0,0.081 -0.09,0.141 -0.001,0 -0.002,0.001 -0.053,0.034 -0.117,0.046 0.102,0.012 0.14,0.08 0.015,0.028 0.015,0.061 0,0.073 -0.07,0.137 L 0.631,-0.078 Q 0.545,0 0.426,0 H 0.069 q -0.025,0 -0.027,-0.011 0,-0.018 0.015,-0.02 h 0.012 q 0.065,0 0.078,-0.014 0.006,-0.007 0.012,-0.028 0,-0.001 0.001,-0.005 m 0.151,-0.288 h 0.146 q 0.099,0 0.163,-0.072 0.045,-0.051 0.045,-0.111 0,-0.073 -0.06,-0.095 Q 0.584,-0.652 0.556,-0.652 H 0.427 q -0.036,0 -0.044,0.01 v 0 0.001 H 0.382 v 0.001 q -0.004,0.006 -0.009,0.026 l -0.062,0.248 m -0.045,0.335 h 0.136 q 0.096,0 0.159,-0.072 Q 0.609,-0.159 0.609,-0.227 0.609,-0.3 0.557,-0.33 0.531,-0.344 0.494,-0.344 H 0.305 l -0.069,0.279 q -0.005,0.018 -0.005,0.023 0,0.008 0.009,0.01 v 0 0 h 0.004 q 0.006,0.001 0.022,0.001 z"
               id="path3795" />
          </g>
        </g>
      </g>
      <path
         fill="#000000"
         stroke="none"
         paint-order="stroke fill markers"
         d="m 325.40045,83.641774 c 0,2.209139 -1.79086,4 -4,4 -2.20913,0 -4,-1.790861 -4,-4 0,-2.209139 1.79087,-4 4,-4 2.20914,0 4,1.790861 4,4 z"
         fill-opacity="1"
         id="path3803" />
      <g
         transform="scale(19)"
         id="g3811">
        <g
           transform="matrix(1.2,0,0,1.2,16.578947,3.7143368)"
           id="g3809">
          <g
             id="g3807">
            <path
               fill="#000000"
               stroke="none"
               paint-order="stroke fill markers"
               d="m 0.926,-0.606 -0.133,0.533 q -0.005,0.018 -0.005,0.024 0,0.017 0.047,0.018 h 0.001 0.017 q 0.026,0 0.028,0.011 Q 0.881,0 0.862,0 L 0.738,-0.003 H 0.737 L 0.614,0 H 0.613 q -0.015,0 -0.015,-0.012 0,-0.017 0.016,-0.019 h 0.012 q 0.065,0 0.078,-0.014 0.006,-0.007 0.012,-0.028 0,-0.001 0.001,-0.005 L 0.86,-0.651 H 0.859 L 0.455,-0.018 Q 0.443,-0.001 0.433,0 0.422,0 0.418,-0.023 L 0.332,-0.643 H 0.331 l -0.136,0.545 q -0.004,0.015 -0.004,0.023 0,0.037 0.048,0.043 0.009,0.001 0.02,0.001 0.018,0 0.018,0.011 Q 0.277,0 0.259,0 l -0.1,-0.003 H 0.156 L 0.057,0 H 0.056 q -0.014,0 -0.014,-0.012 0,-0.019 0.018,-0.019 0.079,-0.003 0.1,-0.05 0.004,-0.01 0.008,-0.025 l 0.127,-0.509 q 0.004,-0.016 0.004,-0.019 0,-0.012 -0.016,-0.015 H 0.282 v 0 Q 0.28,-0.65 0.277,-0.65 0.253,-0.652 0.234,-0.652 q -0.026,0 -0.028,-0.008 -0.001,-0.002 -0.001,-0.004 0,-0.017 0.017,-0.019 v 0 h 0.013 0.137 q 0.023,0 0.027,0.005 v 0.001 q 0.002,0.004 0.004,0.017 l 0.078,0.566 0.365,-0.57 q 0.011,-0.017 0.02,-0.018 0.004,-0.001 0.019,-0.001 h 0.132 q 0.025,0 0.027,0.011 0,0.017 -0.014,0.019 -0.005,0.001 -0.018,0.001 -0.063,0 -0.075,0.016 l -0.001,0.001 v 0.001 q -0.005,0.007 -0.01,0.028 z"
               id="path3805" />
          </g>
        </g>
      </g>
      <path
         fill="#000000"
         stroke="none"
         paint-order="stroke fill markers"
         d="m 289.21512,83.641774 c 0,2.209139 -1.79086,4 -4,4 -2.20914,0 -4,-1.790861 -4,-4 0,-2.209139 1.79086,-4 4,-4 2.20914,0 4,1.790861 4,4 z"
         fill-opacity="1"
         id="path3813" />
      <g
         transform="scale(19)"
         id="g3821">
        <g
           transform="matrix(1.2,0,0,1.2,14.894737,3.6617053)"
           id="g3819">
          <g
             id="g3817">
            <path
               fill="#000000"
               stroke="none"
               paint-order="stroke fill markers"
               d="m 0.374,-0.605 -0.135,0.54 q -0.005,0.018 -0.005,0.023 0,0.008 0.009,0.01 v 0 0 h 0.004 q 0.006,0.001 0.022,0.001 h 0.094 q 0.146,0 0.212,-0.116 0.017,-0.03 0.039,-0.09 0.008,-0.019 0.013,-0.02 l 0.001,-0.001 h 0.003 q 0.011,0 0.012,0.011 0,0.003 -0.004,0.014 L 0.56,-0.017 q -0.005,0.015 -0.013,0.016 v 0 H 0.546 Q 0.542,0 0.529,0 H 0.066 q -0.025,0 -0.027,-0.011 0,-0.018 0.015,-0.02 h 0.012 q 0.065,0 0.078,-0.014 0.006,-0.007 0.012,-0.028 0,-0.001 0.001,-0.005 l 0.134,-0.537 q 0.004,-0.016 0.004,-0.019 0,-0.012 -0.016,-0.015 H 0.278 0.277 q -0.003,0 -0.009,-0.001 -0.017,-0.002 -0.038,-0.002 -0.026,0 -0.028,-0.011 0,-0.02 0.019,-0.02 l 0.132,0.003 h 0.001 l 0.147,-0.003 h 0.001 q 0.016,0 0.016,0.012 0,0.016 -0.013,0.018 -0.006,0.001 -0.025,0.001 -0.079,0 -0.094,0.017 -0.006,0.007 -0.012,0.03 z"
               id="path3815" />
          </g>
        </g>
      </g>
      <path
         fill="#000000"
         stroke="none"
         paint-order="stroke fill markers"
         d="m 44.154501,202.23855 c 0,2.20914 -1.790861,4 -4,4 -2.209139,0 -4,-1.79086 -4,-4 0,-2.20914 1.790861,-4 4,-4 2.209139,0 4,1.79086 4,4 z"
         fill-opacity="1"
         id="path3823" />
      <g
         transform="scale(19)"
         id="g3831">
        <g
           transform="matrix(1.2,0,0,1.2,0.36842105,11.503811)"
           id="g3829">
          <g
             id="g3827">
            <path
               fill="#000000"
               stroke="none"
               paint-order="stroke fill markers"
               d="m 0.509,-0.404 v 0 l 0.142,0.328 q 0.015,0.034 0.037,0.041 H 0.689 0.69 v 0 q 0.011,0.004 0.03,0.004 0.02,0 0.02,0.011 Q 0.74,0 0.722,0 L 0.625,-0.003 H 0.624 L 0.505,0 H 0.502 Q 0.488,0 0.488,-0.011 0.494,-0.03 0.51,-0.031 q 0.052,0 0.052,-0.031 0,-0.008 -0.012,-0.035 L 0.434,-0.366 0.285,-0.25 q -0.029,0.118 -0.04,0.157 -0.009,0.045 -0.009,0.044 0,0.017 0.046,0.018 v 0 0 h 0.019 q 0.026,0 0.028,0.011 Q 0.329,0 0.309,0 L 0.245,-0.002 H 0.244 L 0.182,-0.003 H 0.18 L 0.054,0 H 0.053 q -0.015,0 -0.015,-0.012 0,-0.017 0.016,-0.019 h 0.012 q 0.065,0 0.078,-0.014 0.006,-0.007 0.012,-0.028 0,-0.001 0.001,-0.005 l 0.134,-0.537 q 0.004,-0.016 0.004,-0.019 0,-0.012 -0.016,-0.015 H 0.278 v 0 Q 0.276,-0.65 0.273,-0.65 0.249,-0.652 0.23,-0.652 q -0.026,0 -0.028,-0.008 -0.001,-0.002 -0.001,-0.004 0,-0.019 0.02,-0.019 L 0.349,-0.68 H 0.35 l 0.127,-0.003 h 0.001 q 0.014,0 0.014,0.011 0,0.017 -0.015,0.019 v 0 q -0.005,0.001 -0.019,0.001 -0.061,0 -0.073,0.016 -0.005,0.007 -0.011,0.03 l -0.08,0.321 0.39,-0.3 q 0.036,-0.03 0.036,-0.046 0,-0.017 -0.027,-0.021 v 0 H 0.689 q -0.012,-0.002 -0.012,-0.011 0,-0.02 0.019,-0.02 l 0.11,0.003 h 0.001 l 0.07,-0.003 h 0.001 q 0.011,0 0.011,0.011 0,0.017 -0.018,0.02 -0.055,0.006 -0.118,0.045 -0.021,0.013 -0.045,0.031 L 0.533,-0.441 Q 0.504,-0.42 0.504,-0.418 Z"
               id="path3825" />
          </g>
        </g>
      </g>
      <path
         fill="#000000"
         stroke="none"
         paint-order="stroke fill markers"
         d="m 370.96877,202.23855 c 0,2.20914 -1.79086,4 -4,4 -2.20914,0 -4,-1.79086 -4,-4 0,-2.20914 1.79086,-4 4,-4 2.20914,0 4,1.79086 4,4 z"
         fill-opacity="1"
         id="path3833" />
      <g
         transform="scale(19)"
         id="g3841">
        <g
           transform="matrix(1.2,0,0,1.2,19.894737,11.661705)"
           id="g3839">
          <g
             id="g3837">
            <path
               fill="#000000"
               stroke="none"
               paint-order="stroke fill markers"
               d="m 0.756,-0.578 -0.14,0.557 q -0.005,0.019 -0.01,0.02 L 0.605,0 H 0.6 Q 0.59,0 0.584,-0.012 0.583,-0.015 0.581,-0.019 L 0.332,-0.608 0.323,-0.626 0.191,-0.098 q -0.004,0.015 -0.004,0.023 0,0.034 0.043,0.042 0.01,0.002 0.023,0.002 0.02,0 0.02,0.011 Q 0.273,0 0.255,0 l -0.1,-0.003 H 0.152 L 0.053,0 H 0.052 q -0.013,0 -0.013,-0.011 0,-0.02 0.017,-0.02 0.079,-0.003 0.1,-0.05 0.004,-0.01 0.008,-0.025 l 0.134,-0.537 q 0,-0.009 -0.068,-0.009 -0.026,0 -0.028,-0.011 0,-0.018 0.015,-0.02 h 0.014 0.134 q 0.021,0 0.026,0.007 0.002,0.003 0.006,0.012 l 0.221,0.522 0.112,-0.445 q 0.003,-0.009 0.003,-0.021 0,-0.043 -0.068,-0.044 -0.018,0 -0.018,-0.011 0,-0.02 0.018,-0.02 l 0.101,0.003 h 0.001 l 0.1,-0.003 h 0.001 q 0.013,0 0.013,0.011 0,0.02 -0.017,0.02 -0.078,0.003 -0.1,0.049 v 0 q -0.004,0.01 -0.008,0.025 z"
               id="path3835" />
          </g>
        </g>
      </g>
      <path
         fill="#000000"
         stroke="none"
         paint-order="stroke fill markers"
         d="m 297.36467,142.94016 c 0,2.20914 -1.79086,4 -4,4 -2.20914,0 -4,-1.79086 -4,-4 0,-2.20914 1.79086,-4 4,-4 2.20914,0 4,1.79086 4,4 z"
         fill-opacity="1"
         id="path3843" />
      <g
         transform="scale(19)"
         id="g3851">
        <g
           transform="matrix(1.2,0,0,1.2,15.736842,7.2932842)"
           id="g3849">
          <g
             id="g3847">
            <path
               fill="#000000"
               stroke="none"
               paint-order="stroke fill markers"
               d="m 0.708,-0.233 v 0 L 0.616,-0.017 Q 0.61,-0.003 0.602,-0.001 v 0 H 0.601 Q 0.597,0 0.585,0 H 0.066 Q 0.041,0 0.039,-0.008 0.038,-0.009 0.038,-0.012 q 0,-0.017 0.016,-0.019 h 0.012 q 0.065,0 0.078,-0.014 0.006,-0.007 0.012,-0.028 0,-0.001 0.001,-0.005 l 0.132,-0.529 q 0.005,-0.018 0.005,-0.024 0,-0.017 -0.046,-0.018 H 0.247 0.229 q -0.026,0 -0.028,-0.011 0,-0.018 0.016,-0.02 h 0.014 0.505 q 0.024,0 0.026,0.007 h 0.001 q 0.002,0.006 0,0.02 l -0.02,0.173 q -0.007,0.023 -0.014,0.025 -0.012,0 -0.012,-0.012 l 0.001,-0.017 v -0.001 q 0.004,-0.027 0.004,-0.053 0,-0.07 -0.039,-0.092 Q 0.65,-0.649 0.57,-0.649 H 0.429 q -0.037,0 -0.044,0.011 H 0.384 v 0.001 q -0.003,0.004 -0.005,0.012 v 0.001 L 0.378,-0.623 Q 0.377,-0.619 0.375,-0.61 l -0.06,0.241 h 0.094 q 0.076,0 0.101,-0.03 0.016,-0.019 0.03,-0.069 0.004,-0.017 0.014,-0.018 0.012,0 0.012,0.011 l -0.057,0.234 q -0.005,0.019 -0.015,0.02 -0.013,0 -0.013,-0.011 0,-0.004 0.003,-0.011 0.007,-0.03 0.007,-0.049 0,-0.027 -0.015,-0.035 -0.019,-0.011 -0.07,-0.011 H 0.307 l -0.068,0.273 q -0.005,0.018 -0.005,0.023 0,0.008 0.009,0.01 v 0 0 h 0.004 q 0.006,0.001 0.022,0.001 h 0.146 q 0.122,0 0.18,-0.056 0.038,-0.036 0.083,-0.135 0.004,-0.011 0.01,-0.024 0.004,-0.012 0.013,-0.012 0.012,0 0.012,0.011 0,0.001 -0.005,0.014 z"
               id="path3845" />
          </g>
        </g>
      </g>
    </g>
  </g>
</svg>
