<?xml version="1.0" standalone="no"?>
<!DOCTYPE svg PUBLIC "-//W3C//DTD SVG 20010904//EN"
 "http://www.w3.org/TR/2001/REC-SVG-20010904/DTD/svg10.dtd">
<svg version="1.0" xmlns="http://www.w3.org/2000/svg"
 width="636.000000pt" height="456.000000pt" viewBox="0 0 636.000000 456.000000"
 preserveAspectRatio="xMidYMid meet">
<metadata>
Created by potrace 1.16, written by Peter Selinger 2001-2019
</metadata>
<g transform="translate(0.000000,456.000000) scale(0.100000,-0.100000)"
fill="#000000" stroke="none">
<path d="M2540 4195 c0 -113 2 -135 15 -135 11 0 15 12 15 48 0 35 5 54 18 65
10 10 21 17 25 17 3 0 27 -29 52 -65 31 -43 54 -65 67 -65 18 0 17 4 -12 43
-18 23 -44 59 -58 80 l-25 38 53 55 c45 45 51 54 33 54 -14 0 -45 -26 -87 -72
l-66 -72 0 72 c0 57 -3 72 -15 72 -13 0 -15 -22 -15 -135z"/>
<path d="M2363 4000 c-29 -12 -42 -74 -22 -109 15 -25 5 -42 -324 -590 -391
-652 -360 -598 -348 -606 5 -3 167 258 360 579 295 491 354 583 370 579 16 -4
49 -125 224 -824 l205 -819 -669 0 -668 0 -6 23 c-4 12 -16 31 -26 42 -18 20
-17 21 12 68 21 35 25 47 14 47 -8 0 -24 -17 -36 -37 -21 -37 -23 -38 -80 -38
-53 0 -62 -3 -91 -33 -29 -29 -33 -39 -33 -86 0 -43 5 -60 23 -79 l23 -24
-342 -569 c-188 -313 -344 -577 -347 -587 -17 -63 56 49 364 562 l348 579 32
-5 c43 -7 74 1 101 26 l22 21 780 -468 c429 -257 780 -472 781 -478 0 -6 -6
-16 -12 -21 -23 -19 -2600 -615 -2610 -605 -6 6 0 24 16 51 21 32 23 41 11 41
-8 0 -24 -14 -35 -32 -18 -29 -23 -32 -64 -29 -115 7 -177 -117 -104 -208 25
-31 87 -49 127 -36 36 11 79 54 86 85 l7 30 1258 -1 1259 0 18 -37 c22 -45 75
-82 117 -82 46 0 95 35 114 80 l17 39 1257 0 1256 1 19 -37 c21 -45 75 -83
114 -83 94 0 156 98 114 180 -33 63 -105 88 -170 58 -26 -12 -43 5 -801 763
-639 639 -774 777 -768 794 13 40 15 90 6 115 -5 14 -10 29 -10 33 -2 16 -71
47 -104 47 -18 0 -44 -6 -58 -14 -25 -13 -38 -1 -822 782 -747 746 -795 797
-786 818 9 19 7 33 -7 64 -16 36 -21 40 -54 39 -20 0 -46 -4 -58 -9z m1668
-1756 l-15 -34 -583 0 c-321 0 -583 2 -583 6 0 3 -92 372 -205 821 -112 449
-201 821 -198 826 3 5 364 -349 803 -788 l797 -797 -16 -34z m-1077 -540 c102
-409 117 -477 105 -490 -12 -12 -120 50 -774 442 -418 250 -770 462 -782 469
-14 10 -20 21 -16 35 5 20 10 20 677 20 l671 0 119 -476z m1077 441 l16 -33
-269 -269 c-147 -147 -268 -275 -268 -283 0 -8 125 109 278 261 271 271 278
276 302 263 31 -17 81 -18 115 -2 26 12 43 -5 801 -763 426 -425 774 -780 774
-787 0 -7 -6 -15 -14 -18 -10 -4 -2321 573 -2547 636 -49 14 -58 45 -22 82 35
37 21 49 -16 14 -25 -24 -33 -27 -57 -19 -28 9 -30 15 -139 454 -61 244 -115
456 -118 472 l-7 27 577 0 578 -1 16 -34z m447 -1346 l1284 -324 -1264 -3
c-796 -1 -1264 1 -1266 7 -10 31 -52 78 -79 91 -18 8 -33 21 -34 28 -2 15 -2
-7 0 260 l1 219 25 11 c14 6 25 19 25 28 0 9 6 14 13 12 6 -3 590 -150 1295
-329z m-1388 27 l0 -241 -39 -16 c-28 -12 -43 -27 -57 -57 l-19 -41 -1262 -1
c-835 0 -1264 3 -1265 10 0 6 -1 15 -2 22 -1 8 449 117 1289 313 l1290 302 33
-25 32 -24 0 -242z"/>
<path d="M3230 1435 c0 -113 2 -135 15 -135 12 0 15 20 16 113 l1 112 37 -110
c22 -65 44 -111 52 -113 10 -2 24 27 48 100 18 57 37 107 42 113 5 5 9 -37 9
-103 0 -93 3 -112 15 -112 13 0 15 22 15 135 0 134 0 135 -23 135 -20 0 -27
-13 -60 -115 -21 -63 -40 -115 -42 -115 -2 0 -21 52 -42 115 -33 102 -40 115
-60 115 -23 0 -23 -1 -23 -135z"/>
<path d="M3230 815 c0 -113 2 -135 15 -135 12 0 15 13 15 60 l0 60 65 0 c51 0
65 3 65 15 0 12 -14 15 -65 15 l-65 0 0 45 0 45 70 0 c56 0 70 3 70 15 0 12
-16 15 -85 15 l-85 0 0 -135z"/>
<path d="M1480 2564 l0 -136 74 4 c91 4 116 22 116 79 0 27 -6 42 -19 50 -17
11 -17 14 -3 39 20 34 10 73 -23 88 -14 7 -53 12 -85 12 l-60 0 0 -136z"/>
<path d="M4325 2686 c-39 -17 -55 -37 -66 -83 -10 -49 6 -115 36 -143 50 -47
147 -32 175 28 16 37 -9 50 -27 14 -18 -35 -31 -42 -75 -42 -52 0 -78 35 -78
107 0 44 5 58 25 78 34 35 98 35 121 1 9 -14 22 -22 30 -19 35 13 -38 73 -88
73 -13 -1 -37 -7 -53 -14z"/>
<path d="M509 923 c-34 -89 -89 -236 -89 -239 0 -2 6 -4 13 -4 8 0 21 18 30
40 l15 40 60 0 59 0 13 -40 c9 -27 19 -40 31 -40 11 0 16 5 13 13 -103 265
-121 293 -145 230z"/>
<path d="M6010 815 l0 -137 76 4 c71 3 78 6 105 36 26 29 29 40 29 97 0 57 -3
68 -29 97 -27 30 -34 33 -105 36 l-76 4 0 -137z m159 79 c15 -19 21 -41 21
-79 0 -78 -25 -105 -96 -105 l-54 0 0 105 0 105 54 0 c47 0 57 -4 75 -26z"/>
</g>
</svg>
