<svg version="1.1" xmlns="http://www.w3.org/2000/svg" xmlns:xlink="http://www.w3.org/1999/xlink" width="892" height="604"><defs><clipPath id="TeoBmKUSDZla"><path fill="none" stroke="none" d=" M 0 0 L 892 0 L 892 604 L 0 604 L 0 0 Z"/></clipPath></defs><g transform="scale(1,1)" clip-path="url(#TeoBmKUSDZla)"><g><rect fill="rgb(255,255,255)" stroke="none" x="0" y="0" width="892" height="604" fill-opacity="1"/><path fill="rgb(153,51,0)" stroke="none" paint-order="stroke fill markers" fill-rule="evenodd" d=" M 47.95109174462098 237.70634277626323 L 206.26227032052884 132.16555705899214 L 364.57344889643673 237.70634277626323 L 206.26227032052884 343.2471284935343 Z" fill-opacity="0.09803921568627451"/><path fill="none" stroke="rgb(0,0,0)" paint-order="fill stroke markers" d=" M 294.0775121412322 237.70634277626323 C 294.0775121412322 286.2053616365406 254.7612891808066 325.5215845969659 206.26227032052884 325.5215845969659 C 157.76325146025107 325.5215845969659 118.44702849982546 286.2053616365406 118.44702849982546 237.70634277626323 C 118.44702849982546 189.20732391598582 157.76325146025107 149.89110095556055 206.26227032052884 149.89110095556055 C 254.7612891808066 149.89110095556055 294.0775121412322 189.20732391598582 294.0775121412322 237.70634277626323 Z" stroke-opacity="0.6980392156862745" stroke-linecap="round" stroke-linejoin="round" stroke-miterlimit="10" stroke-width="2.5"/><path fill="none" stroke="rgb(153,51,0)" paint-order="fill stroke markers" d=" M 47.95109174462098 237.70634277626323 L 206.26227032052884 132.16555705899214" stroke-opacity="0.6980392156862745" stroke-linecap="round" stroke-linejoin="round" stroke-miterlimit="10" stroke-width="2.5"/><path fill="none" stroke="rgb(153,51,0)" paint-order="fill stroke markers" d=" M 206.26227032052884 132.16555705899214 L 364.57344889643673 237.70634277626323" stroke-opacity="0.6980392156862745" stroke-linecap="round" stroke-linejoin="round" stroke-miterlimit="10" stroke-width="2.5"/><path fill="none" stroke="rgb(153,51,0)" paint-order="fill stroke markers" d=" M 364.57344889643673 237.70634277626323 L 206.26227032052884 343.2471284935343" stroke-opacity="0.6980392156862745" stroke-linecap="round" stroke-linejoin="round" stroke-miterlimit="10" stroke-width="2.5"/><path fill="none" stroke="rgb(153,51,0)" paint-order="fill stroke markers" d=" M 206.26227032052884 343.2471284935343 L 47.95109174462098 237.70634277626323" stroke-opacity="0.6980392156862745" stroke-linecap="round" stroke-linejoin="round" stroke-miterlimit="10" stroke-width="2.5"/><path fill="none" stroke="rgb(0,0,0)" paint-order="fill stroke markers" d=" M 145.3733554836412 91.57294716773404 L 206.26227032052884 132.16555705899214" stroke-opacity="0.6980392156862745" stroke-linecap="round" stroke-linejoin="round" stroke-miterlimit="10" stroke-width="2.5"/><path fill="none" stroke="rgb(0,0,0)" paint-order="fill stroke markers" d=" M 145.3733554836412 91.57294716773404 L 47.95109174462098 237.70634277626323" stroke-opacity="0.6980392156862745" stroke-linecap="round" stroke-linejoin="round" stroke-miterlimit="10" stroke-width="2.5"/><path fill="none" stroke="rgb(0,0,0)" paint-order="fill stroke markers" d=" M 206.26227032052884 237.70634277626323 L 206.26227032052884 343.2471284935343" stroke-opacity="0.6980392156862745" stroke-linecap="round" stroke-linejoin="round" stroke-miterlimit="10" stroke-width="2.5"/><path fill="none" stroke="rgb(0,0,0)" paint-order="fill stroke markers" d=" M 206.26227032052884 237.70634277626323 L 364.57344889643673 237.70634277626323" stroke-opacity="0.6980392156862745" stroke-linecap="round" stroke-linejoin="round" stroke-miterlimit="10" stroke-width="2.5"/><path fill="none" stroke="rgb(0,0,0)" paint-order="fill stroke markers" d=" M 206.26227032052884 237.70634277626323 L 254.97340219003894 310.77304058052783" stroke-opacity="0.6980392156862745" stroke-linecap="round" stroke-linejoin="round" stroke-miterlimit="10" stroke-width="2.5"/><path fill="none" stroke="rgb(0,0,0)" paint-order="fill stroke markers" d=" M 145.3733554836412 91.57294716773404 L 720.7736006922291 475.17311064012307" stroke-opacity="0.6980392156862745" stroke-linecap="round" stroke-linejoin="round" stroke-miterlimit="10" stroke-width="2.5"/><path fill="none" stroke="rgb(0,0,0)" paint-order="fill stroke markers" d=" M 47.95109174462098 237.70634277626323 L 720.7736006922291 475.17311064012307" stroke-opacity="0.6980392156862745" stroke-linecap="round" stroke-linejoin="round" stroke-miterlimit="10" stroke-width="2.5"/><path fill="rgb(125,125,255)" stroke="none" paint-order="stroke fill markers" d=" M 52.95109174462098 237.70634277626323 C 52.95109174462098 240.4677665254172 50.712515493774944 242.70634277626323 47.95109174462098 242.70634277626323 C 45.18966799546701 242.70634277626323 42.95109174462098 240.4677665254172 42.95109174462098 237.70634277626323 C 42.95109174462098 234.94491902710925 45.18966799546701 232.70634277626323 47.95109174462098 232.70634277626323 C 50.712515493774944 232.70634277626323 52.95109174462098 234.94491902710925 52.95109174462098 237.70634277626323 Z" fill-opacity="1"/><path fill="none" stroke="rgb(0,0,0)" paint-order="fill stroke markers" d=" M 52.95109174462098 237.70634277626323 C 52.95109174462098 240.4677665254172 50.712515493774944 242.70634277626323 47.95109174462098 242.70634277626323 C 45.18966799546701 242.70634277626323 42.95109174462098 240.4677665254172 42.95109174462098 237.70634277626323 C 42.95109174462098 234.94491902710925 45.18966799546701 232.70634277626323 47.95109174462098 232.70634277626323 C 50.712515493774944 232.70634277626323 52.95109174462098 234.94491902710925 52.95109174462098 237.70634277626323 Z" stroke-opacity="1" stroke-linecap="round" stroke-linejoin="round" stroke-miterlimit="10"/><text fill="rgb(125,125,255)" stroke="none" font-family="geogebra-sans-serif, sans-serif" font-size="16px" font-style="normal" font-weight="normal" text-decoration="normal" x="26" y="233" text-anchor="start" dominant-baseline="alphabetic" fill-opacity="1">A</text><text fill="none" stroke="rgb(255,255,255)" font-family="geogebra-sans-serif, sans-serif" font-size="16px" font-style="normal" font-weight="normal" text-decoration="normal" x="26" y="233" text-anchor="start" dominant-baseline="alphabetic" stroke-opacity="1" stroke-linejoin="bevel" stroke-miterlimit="10" stroke-width="3">A</text><text fill="rgb(125,125,255)" stroke="none" font-family="geogebra-sans-serif, sans-serif" font-size="16px" font-style="normal" font-weight="normal" text-decoration="normal" x="26" y="233" text-anchor="start" dominant-baseline="alphabetic" fill-opacity="1">A</text><path fill="rgb(77,77,255)" stroke="none" paint-order="stroke fill markers" d=" M 211.26227032052884 132.16555705899214 C 211.26227032052884 134.9269808081461 209.02369406968282 137.16555705899214 206.26227032052884 137.16555705899214 C 203.50084657137486 137.16555705899214 201.26227032052884 134.9269808081461 201.26227032052884 132.16555705899214 C 201.26227032052884 129.40413330983816 203.50084657137486 127.16555705899214 206.26227032052884 127.16555705899214 C 209.02369406968282 127.16555705899214 211.26227032052884 129.40413330983816 211.26227032052884 132.16555705899214 Z" fill-opacity="1"/><path fill="none" stroke="rgb(0,0,0)" paint-order="fill stroke markers" d=" M 211.26227032052884 132.16555705899214 C 211.26227032052884 134.9269808081461 209.02369406968282 137.16555705899214 206.26227032052884 137.16555705899214 C 203.50084657137486 137.16555705899214 201.26227032052884 134.9269808081461 201.26227032052884 132.16555705899214 C 201.26227032052884 129.40413330983816 203.50084657137486 127.16555705899214 206.26227032052884 127.16555705899214 C 209.02369406968282 127.16555705899214 211.26227032052884 129.40413330983816 211.26227032052884 132.16555705899214 Z" stroke-opacity="1" stroke-linecap="round" stroke-linejoin="round" stroke-miterlimit="10"/><text fill="rgb(77,77,255)" stroke="none" font-family="geogebra-sans-serif, sans-serif" font-size="16px" font-style="normal" font-weight="normal" text-decoration="normal" x="210" y="122" text-anchor="start" dominant-baseline="alphabetic" fill-opacity="1">B</text><text fill="none" stroke="rgb(255,255,255)" font-family="geogebra-sans-serif, sans-serif" font-size="16px" font-style="normal" font-weight="normal" text-decoration="normal" x="210" y="122" text-anchor="start" dominant-baseline="alphabetic" stroke-opacity="1" stroke-linejoin="bevel" stroke-miterlimit="10" stroke-width="3">B</text><text fill="rgb(77,77,255)" stroke="none" font-family="geogebra-sans-serif, sans-serif" font-size="16px" font-style="normal" font-weight="normal" text-decoration="normal" x="210" y="122" text-anchor="start" dominant-baseline="alphabetic" fill-opacity="1">B</text><path fill="rgb(77,77,255)" stroke="none" paint-order="stroke fill markers" d=" M 369.57344889643673 237.70634277626323 C 369.57344889643673 240.4677665254172 367.3348726455907 242.70634277626323 364.57344889643673 242.70634277626323 C 361.8120251472828 242.70634277626323 359.57344889643673 240.4677665254172 359.57344889643673 237.70634277626323 C 359.57344889643673 234.94491902710925 361.8120251472828 232.70634277626323 364.57344889643673 232.70634277626323 C 367.3348726455907 232.70634277626323 369.57344889643673 234.94491902710925 369.57344889643673 237.70634277626323 Z" fill-opacity="1"/><path fill="none" stroke="rgb(0,0,0)" paint-order="fill stroke markers" d=" M 369.57344889643673 237.70634277626323 C 369.57344889643673 240.4677665254172 367.3348726455907 242.70634277626323 364.57344889643673 242.70634277626323 C 361.8120251472828 242.70634277626323 359.57344889643673 240.4677665254172 359.57344889643673 237.70634277626323 C 359.57344889643673 234.94491902710925 361.8120251472828 232.70634277626323 364.57344889643673 232.70634277626323 C 367.3348726455907 232.70634277626323 369.57344889643673 234.94491902710925 369.57344889643673 237.70634277626323 Z" stroke-opacity="1" stroke-linecap="round" stroke-linejoin="round" stroke-miterlimit="10"/><text fill="rgb(77,77,255)" stroke="none" font-family="geogebra-sans-serif, sans-serif" font-size="16px" font-style="normal" font-weight="normal" text-decoration="normal" x="369" y="228" text-anchor="start" dominant-baseline="alphabetic" fill-opacity="1">C</text><text fill="none" stroke="rgb(255,255,255)" font-family="geogebra-sans-serif, sans-serif" font-size="16px" font-style="normal" font-weight="normal" text-decoration="normal" x="369" y="228" text-anchor="start" dominant-baseline="alphabetic" stroke-opacity="1" stroke-linejoin="bevel" stroke-miterlimit="10" stroke-width="3">C</text><text fill="rgb(77,77,255)" stroke="none" font-family="geogebra-sans-serif, sans-serif" font-size="16px" font-style="normal" font-weight="normal" text-decoration="normal" x="369" y="228" text-anchor="start" dominant-baseline="alphabetic" fill-opacity="1">C</text><path fill="rgb(77,77,255)" stroke="none" paint-order="stroke fill markers" d=" M 211.26227032052884 343.2471284935343 C 211.26227032052884 346.00855224268827 209.02369406968282 348.2471284935343 206.26227032052884 348.2471284935343 C 203.50084657137486 348.2471284935343 201.26227032052884 346.00855224268827 201.26227032052884 343.2471284935343 C 201.26227032052884 340.48570474438037 203.50084657137486 338.2471284935343 206.26227032052884 338.2471284935343 C 209.02369406968282 338.2471284935343 211.26227032052884 340.48570474438037 211.26227032052884 343.2471284935343 Z" fill-opacity="1"/><path fill="none" stroke="rgb(0,0,0)" paint-order="fill stroke markers" d=" M 211.26227032052884 343.2471284935343 C 211.26227032052884 346.00855224268827 209.02369406968282 348.2471284935343 206.26227032052884 348.2471284935343 C 203.50084657137486 348.2471284935343 201.26227032052884 346.00855224268827 201.26227032052884 343.2471284935343 C 201.26227032052884 340.48570474438037 203.50084657137486 338.2471284935343 206.26227032052884 338.2471284935343 C 209.02369406968282 338.2471284935343 211.26227032052884 340.48570474438037 211.26227032052884 343.2471284935343 Z" stroke-opacity="1" stroke-linecap="round" stroke-linejoin="round" stroke-miterlimit="10"/><text fill="rgb(77,77,255)" stroke="none" font-family="geogebra-sans-serif, sans-serif" font-size="16px" font-style="normal" font-weight="normal" text-decoration="normal" x="187" y="363" text-anchor="start" dominant-baseline="alphabetic" fill-opacity="1">D</text><text fill="none" stroke="rgb(255,255,255)" font-family="geogebra-sans-serif, sans-serif" font-size="16px" font-style="normal" font-weight="normal" text-decoration="normal" x="187" y="363" text-anchor="start" dominant-baseline="alphabetic" stroke-opacity="1" stroke-linejoin="bevel" stroke-miterlimit="10" stroke-width="3">D</text><text fill="rgb(77,77,255)" stroke="none" font-family="geogebra-sans-serif, sans-serif" font-size="16px" font-style="normal" font-weight="normal" text-decoration="normal" x="187" y="363" text-anchor="start" dominant-baseline="alphabetic" fill-opacity="1">D</text><path fill="rgb(68,68,68)" stroke="none" paint-order="stroke fill markers" d=" M 210.26227032052884 237.70634277626323 C 210.26227032052884 239.9154817755864 208.471409319852 241.70634277626323 206.26227032052884 241.70634277626323 C 204.05313132120565 241.70634277626323 202.26227032052884 239.9154817755864 202.26227032052884 237.70634277626323 C 202.26227032052884 235.49720377694004 204.05313132120565 233.70634277626323 206.26227032052884 233.70634277626323 C 208.471409319852 233.70634277626323 210.26227032052884 235.49720377694004 210.26227032052884 237.70634277626323 Z" fill-opacity="1"/><path fill="none" stroke="rgb(0,0,0)" paint-order="fill stroke markers" d=" M 210.26227032052884 237.70634277626323 C 210.26227032052884 239.9154817755864 208.471409319852 241.70634277626323 206.26227032052884 241.70634277626323 C 204.05313132120565 241.70634277626323 202.26227032052884 239.9154817755864 202.26227032052884 237.70634277626323 C 202.26227032052884 235.49720377694004 204.05313132120565 233.70634277626323 206.26227032052884 233.70634277626323 C 208.471409319852 233.70634277626323 210.26227032052884 235.49720377694004 210.26227032052884 237.70634277626323 Z" stroke-opacity="1" stroke-linecap="round" stroke-linejoin="round" stroke-miterlimit="10"/><text fill="rgb(68,68,68)" stroke="none" font-family="geogebra-sans-serif, sans-serif" font-size="16px" font-style="normal" font-weight="normal" text-decoration="normal" x="210" y="230" text-anchor="start" dominant-baseline="alphabetic" fill-opacity="1">O</text><text fill="none" stroke="rgb(255,255,255)" font-family="geogebra-sans-serif, sans-serif" font-size="16px" font-style="normal" font-weight="normal" text-decoration="normal" x="210" y="230" text-anchor="start" dominant-baseline="alphabetic" stroke-opacity="1" stroke-linejoin="bevel" stroke-miterlimit="10" stroke-width="3">O</text><text fill="rgb(68,68,68)" stroke="none" font-family="geogebra-sans-serif, sans-serif" font-size="16px" font-style="normal" font-weight="normal" text-decoration="normal" x="210" y="230" text-anchor="start" dominant-baseline="alphabetic" fill-opacity="1">O</text><path fill="rgb(68,68,68)" stroke="none" paint-order="stroke fill markers" d=" M 258.97340219003894 310.77304058052783 C 258.97340219003894 312.982179579851 257.1825411893621 314.77304058052783 254.97340219003894 314.77304058052783 C 252.76426319071575 314.77304058052783 250.97340219003894 312.982179579851 250.97340219003894 310.77304058052783 C 250.97340219003894 308.5639015812047 252.76426319071575 306.77304058052783 254.97340219003894 306.77304058052783 C 257.1825411893621 306.77304058052783 258.97340219003894 308.5639015812047 258.97340219003894 310.77304058052783 Z" fill-opacity="1"/><path fill="none" stroke="rgb(0,0,0)" paint-order="fill stroke markers" d=" M 258.97340219003894 310.77304058052783 C 258.97340219003894 312.982179579851 257.1825411893621 314.77304058052783 254.97340219003894 314.77304058052783 C 252.76426319071575 314.77304058052783 250.97340219003894 312.982179579851 250.97340219003894 310.77304058052783 C 250.97340219003894 308.5639015812047 252.76426319071575 306.77304058052783 254.97340219003894 306.77304058052783 C 257.1825411893621 306.77304058052783 258.97340219003894 308.5639015812047 258.97340219003894 310.77304058052783 Z" stroke-opacity="1" stroke-linecap="round" stroke-linejoin="round" stroke-miterlimit="10"/><text fill="rgb(68,68,68)" stroke="none" font-family="geogebra-sans-serif, sans-serif" font-size="16px" font-style="normal" font-weight="normal" text-decoration="normal" x="248" y="340" text-anchor="start" dominant-baseline="alphabetic" fill-opacity="1">M</text><text fill="none" stroke="rgb(255,255,255)" font-family="geogebra-sans-serif, sans-serif" font-size="16px" font-style="normal" font-weight="normal" text-decoration="normal" x="248" y="340" text-anchor="start" dominant-baseline="alphabetic" stroke-opacity="1" stroke-linejoin="bevel" stroke-miterlimit="10" stroke-width="3">M</text><text fill="rgb(68,68,68)" stroke="none" font-family="geogebra-sans-serif, sans-serif" font-size="16px" font-style="normal" font-weight="normal" text-decoration="normal" x="248" y="340" text-anchor="start" dominant-baseline="alphabetic" fill-opacity="1">M</text><path fill="rgb(68,68,68)" stroke="none" paint-order="stroke fill markers" d=" M 258.97340219003894 164.63964497199862 C 258.97340219003894 166.84878397132178 257.1825411893621 168.63964497199862 254.97340219003894 168.63964497199862 C 252.76426319071575 168.63964497199862 250.97340219003894 166.84878397132178 250.97340219003894 164.63964497199862 C 250.97340219003894 162.43050597267543 252.76426319071575 160.63964497199862 254.97340219003894 160.63964497199862 C 257.1825411893621 160.63964497199862 258.97340219003894 162.43050597267543 258.97340219003894 164.63964497199862 Z" fill-opacity="1"/><path fill="none" stroke="rgb(0,0,0)" paint-order="fill stroke markers" d=" M 258.97340219003894 164.63964497199862 C 258.97340219003894 166.84878397132178 257.1825411893621 168.63964497199862 254.97340219003894 168.63964497199862 C 252.76426319071575 168.63964497199862 250.97340219003894 166.84878397132178 250.97340219003894 164.63964497199862 C 250.97340219003894 162.43050597267543 252.76426319071575 160.63964497199862 254.97340219003894 160.63964497199862 C 257.1825411893621 160.63964497199862 258.97340219003894 162.43050597267543 258.97340219003894 164.63964497199862 Z" stroke-opacity="1" stroke-linecap="round" stroke-linejoin="round" stroke-miterlimit="10"/><text fill="rgb(68,68,68)" stroke="none" font-family="geogebra-sans-serif, sans-serif" font-size="16px" font-style="normal" font-weight="normal" text-decoration="normal" x="259" y="157" text-anchor="start" dominant-baseline="alphabetic" fill-opacity="1">Q</text><text fill="none" stroke="rgb(255,255,255)" font-family="geogebra-sans-serif, sans-serif" font-size="16px" font-style="normal" font-weight="normal" text-decoration="normal" x="259" y="157" text-anchor="start" dominant-baseline="alphabetic" stroke-opacity="1" stroke-linejoin="bevel" stroke-miterlimit="10" stroke-width="3">Q</text><text fill="rgb(68,68,68)" stroke="none" font-family="geogebra-sans-serif, sans-serif" font-size="16px" font-style="normal" font-weight="normal" text-decoration="normal" x="259" y="157" text-anchor="start" dominant-baseline="alphabetic" fill-opacity="1">Q</text><path fill="rgb(68,68,68)" stroke="none" paint-order="stroke fill markers" d=" M 724.7736006922291 475.17311064012307 C 724.7736006922291 477.38224963944623 722.9827396915523 479.17311064012307 720.7736006922291 479.17311064012307 C 718.564461692906 479.17311064012307 716.7736006922291 477.38224963944623 716.7736006922291 475.17311064012307 C 716.7736006922291 472.9639716407999 718.564461692906 471.17311064012307 720.7736006922291 471.17311064012307 C 722.9827396915523 471.17311064012307 724.7736006922291 472.9639716407999 724.7736006922291 475.17311064012307 Z" fill-opacity="1"/><path fill="none" stroke="rgb(0,0,0)" paint-order="fill stroke markers" d=" M 724.7736006922291 475.17311064012307 C 724.7736006922291 477.38224963944623 722.9827396915523 479.17311064012307 720.7736006922291 479.17311064012307 C 718.564461692906 479.17311064012307 716.7736006922291 477.38224963944623 716.7736006922291 475.17311064012307 C 716.7736006922291 472.9639716407999 718.564461692906 471.17311064012307 720.7736006922291 471.17311064012307 C 722.9827396915523 471.17311064012307 724.7736006922291 472.9639716407999 724.7736006922291 475.17311064012307 Z" stroke-opacity="1" stroke-linecap="round" stroke-linejoin="round" stroke-miterlimit="10"/><text fill="rgb(68,68,68)" stroke="none" font-family="geogebra-sans-serif, sans-serif" font-size="16px" font-style="normal" font-weight="normal" text-decoration="normal" x="725" y="467" text-anchor="start" dominant-baseline="alphabetic" fill-opacity="1">P</text><text fill="none" stroke="rgb(255,255,255)" font-family="geogebra-sans-serif, sans-serif" font-size="16px" font-style="normal" font-weight="normal" text-decoration="normal" x="725" y="467" text-anchor="start" dominant-baseline="alphabetic" stroke-opacity="1" stroke-linejoin="bevel" stroke-miterlimit="10" stroke-width="3">P</text><text fill="rgb(68,68,68)" stroke="none" font-family="geogebra-sans-serif, sans-serif" font-size="16px" font-style="normal" font-weight="normal" text-decoration="normal" x="725" y="467" text-anchor="start" dominant-baseline="alphabetic" fill-opacity="1">P</text><path fill="rgb(68,68,68)" stroke="none" paint-order="stroke fill markers" d=" M 149.3733554836412 91.57294716773404 C 149.3733554836412 93.78208616705722 147.58249448296436 95.57294716773404 145.3733554836412 95.57294716773404 C 143.16421648431802 95.57294716773404 141.3733554836412 93.78208616705722 141.3733554836412 91.57294716773404 C 141.3733554836412 89.36380816841087 143.16421648431802 87.57294716773404 145.3733554836412 87.57294716773404 C 147.58249448296436 87.57294716773404 149.3733554836412 89.36380816841087 149.3733554836412 91.57294716773404 Z" fill-opacity="1"/><path fill="none" stroke="rgb(0,0,0)" paint-order="fill stroke markers" d=" M 149.3733554836412 91.57294716773404 C 149.3733554836412 93.78208616705722 147.58249448296436 95.57294716773404 145.3733554836412 95.57294716773404 C 143.16421648431802 95.57294716773404 141.3733554836412 93.78208616705722 141.3733554836412 91.57294716773404 C 141.3733554836412 89.36380816841087 143.16421648431802 87.57294716773404 145.3733554836412 87.57294716773404 C 147.58249448296436 87.57294716773404 149.3733554836412 89.36380816841087 149.3733554836412 91.57294716773404 Z" stroke-opacity="1" stroke-linecap="round" stroke-linejoin="round" stroke-miterlimit="10"/><text fill="rgb(68,68,68)" stroke="none" font-family="geogebra-sans-serif, sans-serif" font-size="16px" font-style="normal" font-weight="normal" text-decoration="normal" x="149" y="84" text-anchor="start" dominant-baseline="alphabetic" fill-opacity="1">H</text><text fill="none" stroke="rgb(255,255,255)" font-family="geogebra-sans-serif, sans-serif" font-size="16px" font-style="normal" font-weight="normal" text-decoration="normal" x="149" y="84" text-anchor="start" dominant-baseline="alphabetic" stroke-opacity="1" stroke-linejoin="bevel" stroke-miterlimit="10" stroke-width="3">H</text><text fill="rgb(68,68,68)" stroke="none" font-family="geogebra-sans-serif, sans-serif" font-size="16px" font-style="normal" font-weight="normal" text-decoration="normal" x="149" y="84" text-anchor="start" dominant-baseline="alphabetic" fill-opacity="1">H</text></g></g></svg>